<?xml version="1.0" encoding="UTF-8" standalone="no" ?>
<!DOCTYPE svg PUBLIC "-//W3C//DTD SVG 1.1//EN" "http://www.w3.org/Graphics/SVG/1.1/DTD/svg11.dtd">
<svg xmlns="http://www.w3.org/2000/svg" xmlns:xlink="http://www.w3.org/1999/xlink" version="1.1" width="319.04614484712505" height="173.63558137812504" viewBox="0 0 319.04614 173.63558" xml:space="preserve">
<desc>Created with Fabric.js 2.7.0</desc>
<defs>
</defs>
<g transform="matrix(1 0 0 1 20.34176 85.47553)"  >
<path style="stroke: rgb(0,255,0); stroke-width: 25; stroke-dasharray: none; stroke-linecap: round; stroke-dashoffset: 0; stroke-linejoin: round; stroke-miterlimit: 10; fill: none; fill-rule: nonzero; opacity: 1;"  transform=" translate(-20.34176, -85.47553)" d="M 16.842100107748063 14.780885529157668 Q 16.842100107748063 14.805885529157669 16.842100107748063 15.30408567314615 Q 16.842100107748063 15.80228581713463 16.842100107748063 16.300485961123112 Q 16.842100107748063 16.798686105111592 16.842100107748063 17.296886249100073 Q 16.842100107748063 17.795086393088553 16.842100107748063 18.293286537077034 Q 16.842100107748063 18.79148668106551 16.842100107748063 19.289686825054 Q 16.842100107748063 19.78788696904248 16.842100107748063 20.28608711303096 Q 16.842100107748063 20.78428725701944 16.842100107748063 21.28248740100792 Q 16.842100107748063 21.7806875449964 16.842100107748063 22.27888768898488 Q 16.842100107748063 22.777087832973365 16.842100107748063 23.275287976961845 Q 16.842100107748063 23.77348812095033 16.842100107748063 24.27168826493881 Q 16.842100107748063 24.769888408927287 16.842100107748063 25.268088552915767 Q 16.842100107748063 25.766288696904248 16.842100107748063 26.26448884089273 Q 16.842100107748063 26.762688984881212 16.842100107748063 27.260889128869692 Q 16.842100107748063 27.759089272858173 16.842100107748063 28.257289416846653 Q 16.842100107748063 28.755489560835137 16.842100107748063 29.253689704823618 Q 16.842100107748063 29.751889848812095 16.842100107748063 30.25008999280058 Q 16.842100107748063 30.74829013678906 16.842100107748063 31.24649028077754 Q 16.842100107748063 31.74469042476602 16.842100107748063 32.242890568754504 Q 16.842100107748063 32.74109071274298 16.842100107748063 33.23929085673146 Q 16.842100107748063 33.73749100071994 16.842100107748063 34.235691144708426 Q 16.842100107748063 34.7338912886969 16.842100107748063 35.23209143268539 Q 16.842100107748063 35.73029157667387 16.842100107748063 36.22849172066235 Q 16.842100107748063 36.72669186465083 16.842100107748063 37.22489200863931 Q 16.842100107748063 37.72309215262779 16.842100107748063 38.71949244060475 Q 16.842100107748063 39.715892728581714 16.842100107748063 40.21409287257019 Q 16.842100107748063 40.712293016558675 16.842100107748063 41.70869330453564 Q 16.842100107748063 42.70509359251261 16.842100107748063 43.20329373650108 Q 16.842100107748063 43.701493880489565 16.842100107748063 44.19969402447805 Q 16.842100107748063 44.697894168466526 16.842100107748063 45.69429445644349 Q 16.842100107748063 46.69069474442045 16.842100107748063 47.68709503239741 Q 16.842100107748063 48.68349532037437 16.842100107748063 49.18169546436285 Q 16.842100107748063 49.67989560835134 16.842100107748063 50.178095752339814 Q 16.842100107748063 50.6762958963283 16.842100107748063 51.67269618430526 Q 16.842100107748063 52.66909647228222 16.842100107748063 53.66549676025918 Q 16.842100107748063 54.66189704823614 16.842100107748063 55.65829733621311 Q 16.842100107748063 56.65469762419007 16.842100107748063 57.65109791216703 Q 16.842100107748063 58.64749820014399 16.842100107748063 60.14209863210944 Q 16.842100107748063 61.636699064074875 16.842100107748063 62.63309935205184 Q 16.842100107748063 63.6294996400288 16.842100107748063 65.12410007199425 Q 16.842100107748063 66.61870050395969 16.842100107748063 68.11330093592514 Q 16.842100107748063 69.60790136789058 16.842100107748063 71.10250179985601 Q 16.842100107748063 72.59710223182145 16.842100107748063 73.59350251979842 Q 16.842100107748063 74.58990280777539 16.842100107748063 75.58630309575236 Q 16.842100107748063 76.58270338372931 16.842100107748063 77.57910367170626 Q 16.842100107748063 78.57550395968323 16.842100107748063 79.5719042476602 Q 16.842100107748063 80.56830453563715 16.842100107748063 81.06650467962564 Q 16.842100107748063 81.56470482361412 16.842100107748063 82.0629049676026 Q 16.842100107748063 82.56110511159108 16.842100107748063 83.05930525557956 Q 16.842100107748063 83.55750539956804 16.842100107748063 84.05570554355651 Q 16.842100107748063 84.553905687545 16.842100107748063 85.05210583153348 Q 16.842100107748063 85.55030597552197 16.842100107748063 86.04850611951045 Q 16.842100107748063 86.54670626349892 16.842100107748063 87.0449064074874 Q 16.842100107748063 87.54310655147589 16.842100107748063 88.04130669546437 Q 16.842100107748063 88.53950683945286 16.842100107748063 89.03770698344132 Q 16.842100107748063 89.53590712742981 17.342051131354687 90.03410727141829 Q 17.842002154961307 90.53230741540678 17.842002154961307 91.03050755939526 Q 17.842002154961307 91.52870770338372 17.842002154961307 92.0269078473722 Q 17.842002154961307 92.5251079913607 18.341953178567927 93.52150827933768 Q 18.84190420217455 94.51790856731462 18.84190420217455 95.0161087113031 Q 18.84190420217455 95.5143088552916 18.84190420217455 96.51070914326854 Q 18.84190420217455 97.50710943124552 18.84190420217455 98.00530957523398 Q 18.84190420217455 98.50350971922246 19.341855225781178 99.00170986321096 Q 19.84180624938779 99.49991000719945 19.84180624938779 99.99811015118792 Q 19.84180624938779 100.4963102951764 19.84180624938779 100.99451043916488 Q 19.84180624938779 101.49271058315335 19.84180624938779 102.48911087113032 Q 19.84180624938779 103.48551115910728 20.341757272994418 103.98371130309576 Q 20.84170829660104 104.48191144708424 20.84170829660104 104.98011159107271 Q 20.84170829660104 105.4783117350612 20.84170829660104 105.97651187904968 Q 20.84170829660104 106.47471202303817 20.84170829660104 106.97291216702664 Q 20.84170829660104 107.47111231101512 20.84170829660104 107.9693124550036 Q 20.84170829660104 108.46751259899207 20.84170829660104 108.96571274298056 Q 20.84170829660104 109.46391288696906 21.34165932020766 109.96211303095754 Q 21.84161034381428 110.460313174946 21.84161034381428 110.9585133189345 Q 21.84161034381428 111.45671346292298 21.84161034381428 111.95491360691145 Q 21.84161034381428 112.45311375089992 21.84161034381428 112.9513138948884 Q 21.84161034381428 113.4495140388769 21.84161034381428 113.94771418286538 Q 21.84161034381428 114.44591432685384 22.3415613674209 114.94411447084234 Q 22.841512391027525 115.44231461483082 22.841512391027525 115.9405147588193 Q 22.841512391027525 116.4387149028078 22.841512391027525 116.93691504679626 Q 22.841512391027525 117.43511519078474 22.841512391027525 117.93331533477324 Q 22.841512391027525 118.43151547876172 22.841512391027525 118.9297156227502 Q 22.841512391027525 119.42791576673866 22.841512391027525 119.92611591072716 Q 22.841512391027525 120.42431605471565 23.341463414634145 120.9225161987041 Q 23.841414438240765 121.4207163426926 23.841414438240765 121.91891648668108 Q 23.841414438240765 122.41711663066955 23.841414438240765 122.91531677465804 Q 23.841414438240765 123.41351691864652 23.841414438240765 123.911717062635 Q 23.841414438240765 124.40991720662348 23.841414438240765 124.90811735061196 Q 23.841414438240765 125.40631749460044 23.841414438240765 125.90451763858891 Q 23.841414438240765 126.4027177825774 23.841414438240765 126.90091792656588 Q 23.841414438240765 127.39911807055437 23.841414438240765 127.89731821454284 Q 23.841414438240765 128.39551835853132 23.841414438240765 128.8937185025198 Q 23.841414438240765 129.3919186465083 23.841414438240765 129.8901187904968 Q 23.841414438240765 130.38831893448526 23.841414438240765 130.88651907847373 Q 23.841414438240765 131.38471922246222 23.841414438240765 131.8829193664507 Q 23.841414438240765 132.38111951043916 23.841414438240765 132.87931965442766 Q 23.841414438240765 133.37751979841613 23.841414438240765 133.8757199424046 Q 23.841414438240765 134.3739200863931 23.841414438240765 134.8721202303816 Q 23.841414438240765 135.37032037437007 23.841414438240765 135.86852051835854 Q 23.841414438240765 136.366720662347 23.841414438240765 136.86492080633548 Q 23.841414438240765 137.36312095032395 23.841414438240765 137.86132109431247 Q 23.841414438240765 138.35952123830094 23.841414438240765 138.8577213822894 Q 23.841414438240765 139.3559215262779 23.841414438240765 139.8541216702664 Q 23.841414438240765 140.35232181425488 23.841414438240765 140.85052195824335 Q 23.841414438240765 141.34872210223182 23.841414438240765 141.8469222462203 Q 23.841414438240765 142.3451223902088 23.841414438240765 142.84332253419728 Q 23.841414438240765 143.34152267818575 23.841414438240765 143.83972282217422 Q 23.841414438240765 144.33792296616272 23.841414438240765 144.83612311015122 Q 23.841414438240765 145.3343232541397 23.841414438240765 145.83252339812816 Q 23.841414438240765 146.33072354211663 23.841414438240765 146.8289236861051 Q 23.841414438240765 147.3271238300936 23.841414438240765 147.8253239740821 Q 23.841414438240765 148.32352411807057 23.841414438240765 148.82172426205904 Q 23.841414438240765 149.31992440604753 23.341463414634145 149.818124550036 Q 22.841512391027525 150.31632469402447 22.841512391027525 150.81452483801297 Q 22.841512391027525 151.31272498200144 22.841512391027525 151.8109251259899 Q 22.841512391027525 152.3091252699784 22.841512391027525 152.8073254139669 Q 22.841512391027525 153.30552555795538 22.841512391027525 153.80372570194385 Q 22.841512391027525 154.30192584593237 22.3415613674209 154.80012598992082 Q 21.84161034381428 155.29832613390928 21.84161034381428 155.79652627789778 Q 21.84161034381428 156.29472642188625 21.84161034381428 155.79652627789778 Q 21.84161034381428 155.29832613390928 21.84161034381428 154.30192584593232 L 21.84161034381428 153.28052555795537" stroke-linecap="round" />
</g>
<g transform="matrix(1 0 0 1 130.33098 155.29833)"  >
<path style="stroke: rgb(0,255,0); stroke-width: 25; stroke-dasharray: none; stroke-linecap: round; stroke-dashoffset: 0; stroke-linejoin: round; stroke-miterlimit: 10; fill: none; fill-rule: nonzero; opacity: 1;"  transform=" translate(-130.33098, -155.29833)" d="M 32.81553286315996 156.29472642188625 Q 32.84053286315996 156.29472642188625 33.34048388676658 156.29472642188625 Q 33.8404349103732 156.29472642188625 34.34038593397982 156.29472642188625 Q 34.840336957586445 156.29472642188625 35.340287981193065 156.29472642188625 Q 35.840239004799685 156.29472642188625 36.340190028406305 156.29472642188625 Q 36.840141052012925 156.29472642188625 37.840043099226165 156.29472642188625 Q 38.83994514643941 156.29472642188625 39.33989617004603 156.29472642188625 Q 39.83984719365266 156.29472642188625 40.33979821725928 156.29472642188625 Q 40.8397492408659 156.29472642188625 41.339700264472526 156.29472642188625 Q 41.839651288079146 156.29472642188625 42.339602311685766 156.29472642188625 Q 42.839553335292386 156.29472642188625 43.339504358899006 156.29472642188625 Q 43.839455382505626 156.29472642188625 44.339406406112246 156.29472642188625 Q 44.83935742971887 156.29472642188625 45.33930845332549 156.29472642188625 Q 45.839259476932114 156.29472642188625 46.33921050053874 156.29472642188625 Q 46.83916152414536 156.29472642188625 47.33911254775198 156.29472642188625 Q 47.8390635713586 156.29472642188625 48.33901459496522 156.29472642188625 Q 48.83896561857185 156.29472642188625 49.33891664217847 156.29472642188625 Q 49.83886766578509 156.29472642188625 50.338818689391715 156.29472642188625 Q 50.838769712998335 156.29472642188625 51.338720736604955 156.29472642188625 Q 51.838671760211575 156.29472642188625 52.338622783818195 156.29472642188625 Q 52.838573807424815 156.29472642188625 52.838573807424815 155.79652627789778 Q 52.838573807424815 155.29832613390928 53.338524831031435 155.29832613390928 Q 53.83847585463806 155.29832613390928 54.33842687824468 155.29832613390928 Q 54.8383779018513 155.29832613390928 55.33832892545793 155.29832613390928 Q 55.83827994906455 155.29832613390928 56.33823097267117 155.29832613390928 Q 56.83818199627779 155.29832613390928 57.33813301988441 155.29832613390928 Q 57.83808404349104 155.29832613390928 58.33803506709766 155.29832613390928 Q 58.83798609070428 155.29832613390928 59.3379371143109 155.29832613390928 Q 59.83788813791752 155.29832613390928 60.337839161524144 155.29832613390928 Q 60.83779018513077 155.29832613390928 61.337741208737384 155.29832613390928 Q 61.837692232344 155.29832613390928 62.337643255950624 155.29832613390928 Q 62.83759427955725 155.29832613390928 63.33754530316387 155.29832613390928 Q 63.83749632677049 155.29832613390928 64.33744735037712 155.29832613390928 Q 64.83739837398373 155.29832613390928 65.33734939759036 155.29832613390928 Q 65.83730042119699 155.29832613390928 66.3372514448036 155.29832613390928 Q 66.83720246841023 155.29832613390928 67.33715349201685 155.29832613390928 Q 67.83710451562347 155.29832613390928 68.33705553923008 155.29832613390928 Q 68.8370065628367 155.29832613390928 69.33695758644333 155.29832613390928 Q 69.83690861004995 155.29832613390928 69.83690861004995 154.80012598992082 Q 69.83690861004995 154.30192584593237 70.33685963365657 154.30192584593237 Q 70.8368106572632 154.30192584593237 71.33676168086981 154.30192584593237 Q 71.83671270447644 154.30192584593237 72.33666372808307 154.30192584593237 Q 72.83661475168968 154.30192584593237 73.3365657752963 154.30192584593237 Q 73.83651679890292 154.30192584593237 74.33646782250955 154.30192584593237 Q 74.83641884611617 154.30192584593237 75.3363698697228 154.30192584593237 Q 75.83632089332941 154.30192584593237 76.33627191693603 154.30192584593237 Q 76.83622294054265 154.30192584593237 77.33617396414928 154.30192584593237 Q 77.8361249877559 154.30192584593237 78.33607601136251 154.30192584593237 Q 78.83602703496913 154.30192584593237 79.33597805857576 154.30192584593237 Q 79.83592908218239 154.30192584593237 80.33588010578902 154.30192584593237 Q 80.83583112939563 154.30192584593237 81.33578215300224 154.30192584593237 Q 81.83573317660887 154.30192584593237 82.3356842002155 154.30192584593237 Q 82.83563522382211 154.30192584593237 83.33558624742872 154.30192584593237 Q 83.83553727103535 154.30192584593237 84.33548829464198 154.30192584593237 Q 84.8354393182486 154.30192584593237 85.33539034185523 154.30192584593237 Q 85.83534136546184 154.30192584593237 86.33529238906846 154.30192584593237 Q 86.83524341267508 154.30192584593237 87.33519443628171 154.30192584593237 Q 87.83514545988832 154.30192584593237 88.33509648349495 154.30192584593237 Q 88.83504750710158 154.30192584593237 89.33499853070819 154.30192584593237 Q 89.83494955431482 154.30192584593237 90.33490057792145 154.30192584593237 Q 90.83485160152806 154.30192584593237 91.33480262513469 154.30192584593237 Q 91.8347536487413 154.30192584593237 92.33470467234793 154.30192584593237 Q 92.83465569595454 154.30192584593237 93.33460671956117 154.30192584593237 Q 93.8345577431678 154.30192584593237 94.3345087667744 154.30192584593237 Q 94.83445979038105 154.30192584593237 95.33441081398766 154.30192584593237 Q 95.83436183759429 154.30192584593237 96.33431286120089 154.30192584593237 Q 96.83426388480753 154.30192584593237 97.33421490841414 154.30192584593237 Q 97.83416593202077 154.30192584593237 98.3341169556274 154.30192584593237 Q 98.834067979234 154.30192584593237 99.33401900284062 154.30192584593237 Q 99.83397002644725 154.30192584593237 100.33392105005387 154.30192584593237 Q 100.83387207366049 154.30192584593237 101.3338230972671 154.30192584593237 Q 101.83377412087373 154.30192584593237 102.33372514448035 154.30192584593237 Q 102.83367616808698 154.30192584593237 103.3336271916936 154.30192584593237 Q 103.83357821530022 154.30192584593237 104.33352923890683 154.30192584593237 Q 104.83348026251346 154.30192584593237 105.33343128612007 154.30192584593237 Q 105.8333823097267 154.30192584593237 106.33333333333331 154.30192584593237 Q 106.83328435693996 154.30192584593237 107.33323538054655 154.30192584593237 Q 107.8331864041532 154.30192584593237 108.33313742775982 154.30192584593237 Q 108.83308845136644 154.30192584593237 109.33303947497303 154.30192584593237 Q 109.83299049857968 154.30192584593237 110.3329415221863 154.30192584593237 Q 110.83289254579292 154.30192584593237 111.83279459300616 154.30192584593237 Q 112.8326966402194 154.30192584593237 113.33264766382604 154.30192584593237 Q 113.83259868743264 154.30192584593237 114.33254971103926 154.30192584593237 Q 114.83250073464588 154.30192584593237 115.33245175825252 154.30192584593237 Q 115.83240278185912 154.30192584593237 116.33235380546576 154.30192584593237 Q 116.83230482907238 154.30192584593237 117.332255852679 154.30192584593237 Q 117.83220687628562 154.30192584593237 118.33215789989224 154.30192584593237 Q 118.83210892349886 154.30192584593237 119.33205994710548 154.30192584593237 Q 119.8320109707121 154.30192584593237 120.33196199431872 154.30192584593237 Q 120.83191301792536 154.30192584593237 121.331864041532 154.30192584593237 Q 121.8318150651386 154.30192584593237 122.3317660887452 154.30192584593237 Q 122.83171711235184 154.30192584593237 123.33166813595848 154.30192584593237 Q 123.83161915956508 154.30192584593237 124.33157018317168 154.30192584593237 Q 124.83152120677832 154.30192584593237 125.33147223038496 154.30192584593237 Q 125.83142325399156 154.30192584593237 126.3313742775982 154.30192584593237 Q 126.8313253012048 154.30192584593237 127.33127632481144 154.30192584593237 Q 127.83122734841804 154.30192584593237 128.33117837202468 154.30192584593237 Q 128.8311293956313 154.30192584593237 129.33108041923794 154.30192584593237 Q 129.83103144284453 154.30192584593237 130.33098246645116 154.30192584593237 Q 130.8309334900578 154.30192584593237 131.3308845136644 154.30192584593237 Q 131.830835537271 154.30192584593237 132.33078656087764 154.30192584593237 Q 132.83073758448427 154.30192584593237 133.3306886080909 154.30192584593237 Q 133.83063963169752 154.30192584593237 134.33059065530415 154.30192584593237 Q 134.83054167891075 154.30192584593237 135.33049270251738 154.30192584593237 Q 135.830443726124 154.30192584593237 136.33039474973063 154.30192584593237 Q 136.83034577333726 154.30192584593237 137.33029679694386 154.30192584593237 Q 137.83024782055048 154.30192584593237 138.3301988441571 154.30192584593237 Q 138.83014986776374 154.30192584593237 139.33010089137036 154.30192584593237 Q 139.83005191497696 154.30192584593237 140.3300029385836 154.30192584593237 Q 140.82995396219022 154.30192584593237 141.32990498579684 154.30192584593237 Q 141.82985600940347 154.30192584593237 142.32980703301007 154.30192584593237 Q 142.8297580566167 154.30192584593237 143.32970908022332 154.30192584593237 Q 143.82966010382995 154.30192584593237 144.32961112743658 154.30192584593237 Q 144.82956215104318 154.30192584593237 145.3295131746498 154.30192584593237 Q 145.82946419825643 154.30192584593237 146.32941522186306 154.30192584593237 Q 146.82936624546969 154.30192584593237 147.32931726907628 154.30192584593237 Q 147.8292682926829 154.30192584593237 148.32921931628954 154.30192584593237 Q 148.82917033989617 154.30192584593237 149.3291213635028 154.30192584593237 Q 149.8290723871094 154.30192584593237 150.32902341071602 154.30192584593237 Q 150.82897443432265 154.30192584593237 151.32892545792927 154.30192584593237 Q 151.8288764815359 154.30192584593237 152.3288275051425 154.30192584593237 Q 152.82877852874913 154.30192584593237 153.32872955235575 154.30192584593237 Q 153.82868057596238 154.30192584593237 154.328631599569 154.30192584593237 Q 154.82858262317563 154.30192584593237 155.32853364678226 154.30192584593237 Q 155.82848467038886 154.30192584593237 156.3284356939955 154.30192584593237 Q 156.82838671760211 154.30192584593237 157.3283377412087 154.30192584593237 Q 157.82828876481534 154.30192584593237 158.32823978842197 154.30192584593237 Q 158.8281908120286 154.30192584593237 159.32814183563522 154.30192584593237 Q 159.82809285924185 154.30192584593237 160.32804388284848 154.30192584593237 Q 160.82799490645507 154.30192584593237 161.3279459300617 154.80012598992082 Q 161.82789695366833 155.29832613390928 162.32784797727493 155.29832613390928 Q 162.82779900088156 155.29832613390928 163.32775002448818 155.29832613390928 Q 163.8277010480948 155.29832613390928 164.32765207170144 155.29832613390928 Q 164.82760309530806 155.29832613390928 165.3275541189147 155.29832613390928 Q 165.8275051425213 155.29832613390928 166.32745616612792 155.29832613390928 Q 166.82740718973454 155.29832613390928 167.32735821334114 155.29832613390928 Q 167.82730923694777 155.29832613390928 168.3272602605544 155.29832613390928 Q 168.82721128416102 155.29832613390928 169.32716230776765 155.29832613390928 Q 169.82711333137428 155.29832613390928 170.3270643549809 155.29832613390928 Q 170.8270153785875 155.29832613390928 171.32696640219413 155.29832613390928 Q 171.82691742580076 155.29832613390928 172.32686844940736 155.29832613390928 Q 172.82681947301398 155.29832613390928 173.3267704966206 155.29832613390928 Q 173.82672152022724 155.29832613390928 174.3266725438339 155.79652627789778 Q 174.8266235674405 156.29472642188625 175.32657459104712 156.29472642188625 Q 175.82652561465372 156.29472642188625 176.32647663826037 156.29472642188625 Q 176.82642766186697 156.29472642188625 177.3263786854736 156.29472642188625 Q 177.82632970908023 156.29472642188625 178.32628073268685 156.29472642188625 Q 178.82623175629345 156.29472642188625 179.32618277990008 156.29472642188625 Q 179.8261338035067 156.29472642188625 180.32608482711333 156.29472642188625 Q 180.82603585071993 156.29472642188625 181.32598687432656 156.29472642188625 Q 181.8259378979332 156.29472642188625 182.3258889215398 156.29472642188625 Q 182.82583994514644 156.29472642188625 183.32579096875304 156.29472642188625 Q 183.82574199235967 156.29472642188625 184.3256930159663 156.29472642188625 Q 184.82564403957292 156.29472642188625 185.32559506317955 156.29472642188625 Q 185.82554608678615 156.29472642188625 186.32549711039275 156.29472642188625 Q 186.8254481339994 156.29472642188625 187.32539915760603 156.29472642188625 Q 187.82535018121263 156.29472642188625 188.32530120481923 156.29472642188625 Q 188.82525222842588 156.29472642188625 189.3252032520325 156.29472642188625 Q 189.8251542756391 156.29472642188625 190.32510529924576 156.29472642188625 Q 190.82505632285236 156.29472642188625 191.325007346459 156.29472642188625 Q 191.8249583700656 156.29472642188625 192.32490939367224 156.29472642188625 Q 192.82486041727887 156.29472642188625 193.32481144088547 156.29472642188625 Q 193.8247624644921 156.29472642188625 194.32471348809872 156.29472642188625 Q 194.82466451170535 156.29472642188625 195.324615535312 156.29472642188625 Q 195.82456655891855 156.29472642188625 196.3245175825252 155.79652627789778 Q 196.82446860613183 155.29832613390928 197.3244196297385 155.29832613390928 Q 197.82437065334508 155.29832613390928 198.32432167695168 155.29832613390928 Q 198.8242727005583 155.29832613390928 199.32422372416497 155.29832613390928 Q 199.82417474777156 155.29832613390928 200.3241257713782 155.29832613390928 Q 200.8240767949848 155.29832613390928 201.32402781859145 155.29832613390928 Q 201.82397884219804 155.29832613390928 202.32392986580467 155.29832613390928 Q 202.8238808894113 155.29832613390928 203.3238319130179 155.29832613390928 Q 203.82378293662453 155.29832613390928 204.32373396023115 155.29832613390928 Q 204.82368498383775 155.29832613390928 205.82358703105103 155.29832613390928 Q 206.82348907826423 155.29832613390928 207.3234401018709 155.29832613390928 Q 207.8233911254775 155.29832613390928 208.3233421490841 155.29832613390928 Q 208.8232931726907 155.29832613390928 209.823195219904 155.29832613390928 Q 210.82309726711725 155.29832613390928 211.32304829072388 155.29832613390928 Q 211.82299931433047 155.29832613390928 212.8229013615437 154.80012598992082 Q 213.82280340875695 154.30192584593237 214.3227544323636 154.30192584593237 Q 214.8227054559702 154.30192584593237 215.32265647957684 154.30192584593237 Q 215.82260750318343 154.30192584593237 216.3225585267901 154.30192584593237 Q 216.8225095503967 154.30192584593237 217.32246057400332 154.30192584593237 Q 217.82241159760991 154.30192584593237 218.32236262121657 154.30192584593237 Q 218.8223136448232 154.30192584593237 219.3222646684298 154.30192584593237 Q 219.8222156920364 154.30192584593237 220.32216671564305 154.30192584593237 Q 220.82211773924968 154.30192584593237 221.3220687628563 154.30192584593237 Q 221.8220197864629 154.30192584593237 222.32197081006953 154.30192584593237 Q 222.82192183367616 154.30192584593237 223.3218728572828 154.30192584593237 Q 223.8218238808894 154.30192584593237 224.321774904496 154.30192584593237 Q 224.82172592810264 154.30192584593237 225.3216769517093 154.30192584593237 Q 225.8216279753159 154.30192584593237 226.32157899892252 154.30192584593237 Q 226.82153002252912 154.30192584593237 227.32148104613577 154.30192584593237 L 227.8464320697424 154.30192584593237" stroke-linecap="round" />
</g>
<g transform="matrix(1 0 0 1 264.31786 155.29833)"  >
<path style="stroke: rgb(0,255,0); stroke-width: 25; stroke-dasharray: none; stroke-linecap: round; stroke-dashoffset: 0; stroke-linejoin: round; stroke-miterlimit: 10; fill: none; fill-rule: nonzero; opacity: 1;"  transform=" translate(-264.31786, -155.29833)" d="M 227.79643206974237 154.30192584593237 Q 227.82143206974237 154.30192584593237 228.8213341169556 154.30192584593237 Q 229.82123616416885 154.30192584593237 230.32118718777548 154.30192584593237 Q 230.8211382113821 154.30192584593237 231.32108923498873 154.30192584593237 Q 231.82104025859533 154.30192584593237 232.32099128220196 154.30192584593237 Q 232.8209423058086 154.30192584593237 233.3208933294152 154.30192584593237 Q 233.82084435302184 154.30192584593237 234.32079537662844 154.30192584593237 Q 234.82074640023507 154.30192584593237 235.3206974238417 154.30192584593237 Q 235.82064844744832 154.30192584593237 236.32059947105495 154.30192584593237 Q 236.82055049466155 154.30192584593237 237.32050151826817 154.30192584593237 Q 237.8204525418748 154.30192584593237 238.32040356548143 154.30192584593237 Q 238.82035458908803 154.30192584593237 238.82035458908803 153.80372570194385 Q 238.82035458908803 153.30552555795538 239.32030561269465 153.30552555795538 Q 239.82025663630128 153.30552555795538 240.3202076599079 153.30552555795538 Q 240.8201586835145 153.30552555795538 241.32010970712116 153.30552555795538 Q 241.8200607307278 153.30552555795538 242.3200117543344 153.30552555795538 Q 242.81996277794104 153.30552555795538 243.31991380154764 153.30552555795538 Q 243.81986482515427 153.30552555795538 244.31981584876087 153.30552555795538 Q 244.8197668723675 153.30552555795538 245.31971789597412 153.30552555795538 Q 245.81966891958075 153.30552555795538 246.819570966794 153.30552555795538 Q 247.81947301400723 153.30552555795538 248.31942403761383 153.30552555795538 Q 248.81937506122048 153.30552555795538 249.31932608482708 153.30552555795538 Q 249.8192771084337 153.30552555795538 250.81917915564696 153.30552555795538 Q 251.81908120286025 153.30552555795538 252.81898325007347 153.30552555795538 Q 253.8188852972867 153.30552555795538 254.3188363208933 153.30552555795538 Q 254.81878734449992 153.30552555795538 255.31873836810655 153.30552555795538 Q 255.8186893917132 153.30552555795538 256.81859143892643 153.30552555795538 Q 257.8184934861397 153.30552555795538 258.3184445097463 153.30552555795538 Q 258.8183955333529 153.30552555795538 259.3183465569595 153.30552555795538 Q 259.81829758056614 153.30552555795538 260.31824860417277 153.30552555795538 Q 260.8181996277794 153.30552555795538 261.318150651386 153.30552555795538 Q 261.81810167499265 153.30552555795538 262.3180526985993 153.30552555795538 Q 262.8180037222059 153.30552555795538 263.3179547458125 153.30552555795538 Q 263.8179057694191 153.30552555795538 264.3178567930257 153.30552555795538 Q 264.81780781663235 153.30552555795538 265.317758840239 153.30552555795538 Q 265.8177098638456 153.30552555795538 266.31766088745223 153.30552555795538 Q 266.81761191105886 153.30552555795538 267.3175629346655 153.30552555795538 Q 267.8175139582721 153.30552555795538 268.31746498187874 153.30552555795538 Q 268.8174160054853 153.30552555795538 269.31736702909194 153.30552555795538 Q 269.81731805269857 153.30552555795538 270.3172690763052 153.30552555795538 Q 270.8172200999118 153.30552555795538 271.31717112351845 153.30552555795538 Q 271.8171221471251 153.30552555795538 272.3170731707317 153.30552555795538 Q 272.81702419433833 153.30552555795538 273.31697521794496 153.30552555795538 Q 273.8169262415516 153.30552555795538 274.31687726515815 153.30552555795538 Q 274.8168282887648 153.30552555795538 275.3167793123714 153.30552555795538 Q 275.81673033597804 153.30552555795538 276.31668135958466 153.30552555795538 Q 276.8166323831913 153.30552555795538 277.3165834067979 153.30552555795538 Q 277.81653443040454 153.30552555795538 277.81653443040454 153.80372570194385 Q 277.81653443040454 154.30192584593237 278.3164854540112 154.30192584593237 Q 278.8164364776178 154.30192584593237 279.3163875012244 154.30192584593237 Q 279.816338524831 154.30192584593237 280.3162895484376 154.80012598992082 Q 280.81624057204425 155.29832613390928 281.3161915956509 155.29832613390928 Q 281.8161426192575 155.29832613390928 282.31609364286413 155.29832613390928 Q 282.81604466647076 155.29832613390928 283.3159956900774 155.79652627789778 Q 283.815946713684 156.29472642188625 284.3158977372906 156.29472642188625 Q 284.8158487608972 156.29472642188625 285.31579978450384 156.29472642188625 Q 285.81575080811047 156.29472642188625 286.3157018317171 156.29472642188625 Q 286.8156528553237 156.29472642188625 286.8156528553237 156.79292656587472 Q 286.8156528553237 157.29112670986322 287.31560387893035 157.29112670986322 Q 287.815554902537 157.29112670986322 288.3155059261436 157.29112670986322 Q 288.8154569497502 157.29112670986322 289.31540797335686 157.29112670986322 Q 289.8153589969634 157.29112670986322 290.31531002057005 157.29112670986322 Q 290.8152610441767 157.29112670986322 291.3152120677833 157.29112670986322 Q 291.81516309138993 157.29112670986322 292.31511411499656 157.29112670986322 Q 292.8150651386032 157.29112670986322 293.3150161622098 157.29112670986322 Q 293.81496718581644 157.29112670986322 294.314918209423 157.29112670986322 Q 294.81486923302964 157.29112670986322 295.31482025663627 157.29112670986322 Q 295.8147712802429 157.29112670986322 296.3147223038495 157.29112670986322 Q 296.81467332745615 157.29112670986322 297.3146243510628 157.29112670986322 Q 297.8145753746694 157.29112670986322 298.31452639827603 157.29112670986322 Q 298.81447742188266 157.29112670986322 299.3144284454893 157.29112670986322 Q 299.81437946909585 157.29112670986322 300.3143304927025 157.29112670986322 L 300.8392815163091 157.29112670986322" stroke-linecap="round" />
</g>
<g transform="matrix(1 0 0 1 301.31423 85.12688)"  >
<path style="stroke: rgb(0,255,0); stroke-width: 25; stroke-dasharray: none; stroke-linecap: round; stroke-dashoffset: 0; stroke-linejoin: round; stroke-miterlimit: 10; fill: none; fill-rule: nonzero; opacity: 1;"  transform=" translate(-301.31423, -85.12688)" d="M 302.8140856107356 155.3233261339093 Q 302.8140856107356 155.29832613390928 302.8140856107356 154.80012598992082 Q 302.8140856107356 154.30192584593237 302.8140856107356 153.80372570194385 Q 302.8140856107356 153.30552555795538 302.314134587129 152.8073254139669 Q 301.81418356352236 152.3091252699784 301.81418356352236 151.8109251259899 Q 301.81418356352236 151.31272498200144 301.81418356352236 150.81452483801297 Q 301.81418356352236 150.31632469402447 301.81418356352236 149.818124550036 Q 301.81418356352236 149.31992440604753 301.81418356352236 148.82172426205904 Q 301.81418356352236 148.32352411807057 301.81418356352236 147.8253239740821 Q 301.81418356352236 147.3271238300936 301.81418356352236 146.8289236861051 Q 301.81418356352236 146.33072354211663 301.81418356352236 145.83252339812816 Q 301.81418356352236 145.3343232541397 301.81418356352236 144.83612311015122 Q 301.81418356352236 144.33792296616272 301.81418356352236 143.83972282217422 Q 301.81418356352236 143.34152267818575 301.81418356352236 142.84332253419728 Q 301.81418356352236 142.3451223902088 301.81418356352236 141.8469222462203 Q 301.81418356352236 141.34872210223182 301.81418356352236 140.85052195824335 Q 301.81418356352236 140.35232181425488 301.81418356352236 139.8541216702664 Q 301.81418356352236 139.3559215262779 301.81418356352236 138.8577213822894 Q 301.81418356352236 138.35952123830094 301.81418356352236 137.86132109431247 Q 301.81418356352236 137.36312095032395 301.81418356352236 136.86492080633548 Q 301.81418356352236 136.366720662347 301.81418356352236 135.86852051835854 Q 301.81418356352236 135.37032037437007 301.81418356352236 134.8721202303816 Q 301.81418356352236 134.3739200863931 301.81418356352236 133.8757199424046 Q 301.81418356352236 133.37751979841613 301.81418356352236 132.87931965442766 Q 301.81418356352236 132.38111951043916 301.81418356352236 131.8829193664507 Q 301.81418356352236 131.38471922246222 301.81418356352236 130.88651907847373 Q 301.81418356352236 130.38831893448526 301.81418356352236 129.8901187904968 Q 301.81418356352236 129.3919186465083 301.81418356352236 128.8937185025198 Q 301.81418356352236 128.39551835853132 301.81418356352236 127.89731821454284 Q 301.81418356352236 127.39911807055437 301.81418356352236 126.90091792656588 Q 301.81418356352236 126.4027177825774 301.81418356352236 125.90451763858891 Q 301.81418356352236 125.40631749460044 301.81418356352236 124.90811735061196 Q 301.81418356352236 124.40991720662348 301.81418356352236 123.911717062635 Q 301.81418356352236 123.41351691864652 301.81418356352236 122.91531677465804 Q 301.81418356352236 122.41711663066955 301.81418356352236 121.91891648668108 Q 301.81418356352236 121.4207163426926 301.81418356352236 120.9225161987041 Q 301.81418356352236 120.42431605471565 301.81418356352236 119.92611591072716 Q 301.81418356352236 119.42791576673866 302.314134587129 119.42791576673866 Q 302.8140856107356 119.42791576673866 302.8140856107356 118.9297156227502 Q 302.8140856107356 118.43151547876172 302.8140856107356 117.93331533477324 Q 302.8140856107356 117.43511519078474 302.8140856107356 116.93691504679626 Q 302.8140856107356 116.4387149028078 302.8140856107356 115.9405147588193 Q 302.8140856107356 115.44231461483082 302.8140856107356 114.94411447084234 Q 302.8140856107356 114.44591432685384 302.8140856107356 113.94771418286538 Q 302.8140856107356 113.4495140388769 302.8140856107356 112.9513138948884 Q 302.8140856107356 112.45311375089992 302.8140856107356 111.95491360691145 Q 302.8140856107356 111.45671346292298 302.8140856107356 110.9585133189345 Q 302.8140856107356 110.460313174946 302.8140856107356 109.96211303095754 Q 302.8140856107356 109.46391288696906 302.8140856107356 108.96571274298056 Q 302.8140856107356 108.46751259899207 302.8140856107356 107.9693124550036 Q 302.8140856107356 107.47111231101512 302.8140856107356 106.97291216702664 Q 302.8140856107356 106.47471202303817 302.8140856107356 105.97651187904968 Q 302.8140856107356 105.4783117350612 302.8140856107356 104.98011159107271 Q 302.8140856107356 104.48191144708424 302.8140856107356 103.98371130309576 Q 302.8140856107356 103.48551115910728 302.8140856107356 102.9873110151188 Q 302.8140856107356 102.48911087113032 302.8140856107356 101.99091072714184 Q 302.8140856107356 101.49271058315335 302.8140856107356 100.99451043916488 Q 302.8140856107356 100.4963102951764 302.8140856107356 99.99811015118792 Q 302.8140856107356 99.49991000719945 302.8140856107356 99.00170986321096 Q 302.8140856107356 98.50350971922246 302.8140856107356 98.00530957523398 Q 302.8140856107356 97.50710943124552 302.8140856107356 97.00890928725704 Q 302.8140856107356 96.51070914326854 302.8140856107356 96.01250899928009 Q 302.8140856107356 95.5143088552916 302.8140856107356 95.0161087113031 Q 302.8140856107356 94.51790856731462 302.8140856107356 94.01970842332614 Q 302.8140856107356 93.52150827933764 302.8140856107356 93.02330813534915 Q 302.8140856107356 92.5251079913607 302.8140856107356 92.0269078473722 Q 302.8140856107356 91.52870770338372 302.8140856107356 91.03050755939526 Q 302.8140856107356 90.53230741540678 302.8140856107356 90.03410727141829 Q 302.8140856107356 89.53590712742981 302.8140856107356 89.03770698344132 Q 302.8140856107356 88.53950683945286 302.8140856107356 88.04130669546437 Q 302.8140856107356 87.54310655147589 302.8140856107356 87.0449064074874 Q 302.8140856107356 86.54670626349892 302.8140856107356 86.04850611951045 Q 302.8140856107356 85.55030597552197 302.8140856107356 84.55390568754501 Q 302.8140856107356 83.55750539956804 302.8140856107356 83.05930525557956 Q 302.8140856107356 82.56110511159108 302.8140856107356 81.06650467962564 Q 302.8140856107356 79.57190424766019 302.8140856107356 79.0737041036717 Q 302.8140856107356 78.57550395968323 302.8140856107356 77.57910367170626 Q 302.8140856107356 76.58270338372931 302.8140856107356 75.08810295176386 Q 302.8140856107356 73.59350251979842 302.8140856107356 71.6007019438445 Q 302.8140856107356 69.60790136789058 302.8140856107356 68.61150107991361 Q 302.8140856107356 67.61510079193665 302.8140856107356 66.1205003599712 Q 302.8140856107356 64.62589992800577 302.8140856107356 63.6294996400288 Q 302.8140856107356 62.63309935205184 302.8140856107356 61.636699064074875 Q 302.8140856107356 60.640298776097914 302.8140856107356 59.64389848812095 Q 302.8140856107356 58.64749820014399 302.8140856107356 58.14929805615552 Q 302.8140856107356 57.65109791216703 302.8140856107356 57.15289776817855 Q 302.8140856107356 56.65469762419007 302.8140856107356 56.15649748020159 Q 302.8140856107356 55.6582973362131 302.314134587129 55.6582973362131 Q 301.81418356352236 55.6582973362131 301.31423253991574 55.6582973362131 Q 300.8142815163091 55.6582973362131 300.3143304927025 55.6582973362131 Q 299.81437946909585 55.6582973362131 299.81437946909585 55.160097192224626 Q 299.81437946909585 54.66189704823614 299.81437946909585 54.16369690424766 Q 299.81437946909585 53.66549676025918 299.81437946909585 53.167296616270704 Q 299.81437946909585 52.66909647228222 299.81437946909585 52.170896328293736 Q 299.81437946909585 51.67269618430526 299.81437946909585 51.17449604031678 Q 299.81437946909585 50.6762958963283 299.81437946909585 50.178095752339814 Q 299.81437946909585 49.67989560835134 299.81437946909585 49.18169546436285 Q 299.81437946909585 48.68349532037437 299.81437946909585 48.18529517638589 Q 299.81437946909585 47.68709503239741 300.3143304927025 47.68709503239741 Q 300.8142815163091 47.68709503239741 300.8142815163091 47.188894888408925 Q 300.8142815163091 46.69069474442045 300.8142815163091 46.19249460043197 Q 300.8142815163091 45.69429445644349 300.8142815163091 45.196094312455 Q 300.8142815163091 44.697894168466526 300.8142815163091 44.19969402447805 Q 300.8142815163091 43.701493880489565 300.8142815163091 43.20329373650108 Q 300.8142815163091 42.70509359251261 300.8142815163091 42.20689344852412 Q 300.8142815163091 41.70869330453563 300.8142815163091 41.21049316054716 Q 300.8142815163091 40.712293016558675 300.8142815163091 40.21409287257019 Q 300.8142815163091 39.715892728581714 300.8142815163091 38.71949244060475 Q 300.8142815163091 37.72309215262779 301.31423253991574 37.22489200863931 Q 301.81418356352236 36.72669186465083 301.81418356352236 36.22849172066235 Q 301.81418356352236 35.73029157667387 301.81418356352236 35.23209143268539 Q 301.81418356352236 34.7338912886969 301.81418356352236 33.73749100071994 Q 301.81418356352236 32.74109071274298 302.314134587129 32.242890568754504 Q 302.8140856107356 31.74469042476602 302.8140856107356 31.24649028077754 Q 302.8140856107356 30.74829013678906 302.8140856107356 30.25008999280058 Q 302.8140856107356 29.751889848812095 302.8140856107356 29.253689704823618 Q 302.8140856107356 28.755489560835137 302.8140856107356 28.257289416846653 Q 302.8140856107356 27.759089272858173 302.8140856107356 27.260889128869692 Q 302.8140856107356 26.762688984881212 302.8140856107356 26.26448884089273 Q 302.8140856107356 25.766288696904248 302.8140856107356 25.268088552915767 Q 302.8140856107356 24.769888408927287 302.8140856107356 24.27168826493881 Q 302.8140856107356 23.77348812095033 302.8140856107356 23.275287976961845 Q 302.8140856107356 22.777087832973365 302.8140856107356 22.27888768898488 Q 302.8140856107356 21.7806875449964 302.8140856107356 21.28248740100792 Q 302.8140856107356 20.78428725701944 302.8140856107356 20.28608711303096 Q 302.8140856107356 19.78788696904248 302.8140856107356 19.289686825054 Q 302.8140856107356 18.79148668106551 302.314134587129 18.293286537077034 Q 301.81418356352236 17.795086393088553 301.81418356352236 17.296886249100073 Q 301.81418356352236 16.798686105111592 301.81418356352236 16.300485961123112 Q 301.81418356352236 15.80228581713463 301.81418356352236 15.30408567314615 Q 301.81418356352236 14.805885529157669 301.81418356352236 15.30408567314615 L 301.81418356352236 15.82728581713463" stroke-linecap="round" />
</g>
<g transform="matrix(1 0 0 1 101.32132 16.78619)"  >
<path style="stroke: rgb(0,255,0); stroke-width: 25; stroke-dasharray: none; stroke-linecap: round; stroke-dashoffset: 0; stroke-linejoin: round; stroke-miterlimit: 10; fill: none; fill-rule: nonzero; opacity: 1;"  transform=" translate(-101.32132, -16.78619)" d="M 19.816806249387795 14.805885529157669 Q 19.84180624938779 14.805885529157669 20.341757272994418 14.805885529157669 Q 20.84170829660104 14.805885529157669 21.34165932020766 14.805885529157669 Q 21.84161034381428 14.805885529157669 22.3415613674209 14.805885529157669 Q 22.841512391027525 14.805885529157669 23.341463414634145 15.30408567314615 Q 23.841414438240765 15.80228581713463 24.34136546184739 15.80228581713463 Q 24.84131648545401 15.80228581713463 25.34126750906063 15.80228581713463 Q 25.841218532667252 15.80228581713463 26.341169556273876 15.80228581713463 Q 26.841120579880496 15.80228581713463 27.341071603487116 15.80228581713463 Q 27.84102262709374 15.80228581713463 28.340973650700363 15.80228581713463 Q 28.840924674306983 15.80228581713463 28.840924674306983 16.300485961123112 Q 28.840924674306983 16.798686105111592 29.340875697913603 16.798686105111592 Q 29.840826721520227 16.798686105111592 30.34077774512685 16.798686105111592 Q 30.84072876873347 16.798686105111592 31.34067979234009 16.798686105111592 Q 31.84063081594671 16.798686105111592 32.34058183955334 16.798686105111592 Q 32.84053286315996 16.798686105111592 33.34048388676658 16.798686105111592 Q 33.8404349103732 16.798686105111592 34.34038593397982 16.798686105111592 Q 34.840336957586445 16.798686105111592 35.340287981193065 16.798686105111592 Q 35.840239004799685 16.798686105111592 36.340190028406305 16.798686105111592 Q 36.840141052012925 16.798686105111592 37.34009207561955 16.798686105111592 Q 37.84004309922617 16.798686105111592 38.33999412283279 16.798686105111592 Q 38.83994514643941 16.798686105111592 39.33989617004603 16.798686105111592 Q 39.83984719365266 16.798686105111592 40.33979821725928 16.798686105111592 Q 40.8397492408659 16.798686105111592 41.339700264472526 16.798686105111592 Q 41.839651288079146 16.798686105111592 42.339602311685766 16.798686105111592 Q 42.839553335292386 16.798686105111592 43.339504358899006 16.798686105111592 Q 43.839455382505626 16.798686105111592 44.339406406112246 16.798686105111592 Q 44.83935742971887 16.798686105111592 45.33930845332549 16.798686105111592 Q 45.839259476932114 16.798686105111592 46.33921050053874 16.798686105111592 Q 46.83916152414536 16.798686105111592 47.33911254775198 16.798686105111592 Q 47.8390635713586 16.798686105111592 48.33901459496522 16.798686105111592 Q 48.83896561857185 16.798686105111592 49.33891664217847 16.798686105111592 Q 49.83886766578509 16.798686105111592 50.338818689391715 16.798686105111592 Q 50.838769712998335 16.798686105111592 51.338720736604955 16.798686105111592 Q 51.838671760211575 16.798686105111592 52.338622783818195 16.798686105111592 Q 52.838573807424815 16.798686105111592 53.338524831031435 16.798686105111592 Q 53.83847585463806 16.798686105111592 54.33842687824468 16.798686105111592 Q 54.8383779018513 16.798686105111592 55.33832892545793 16.798686105111592 Q 55.83827994906455 16.798686105111592 56.33823097267117 16.798686105111592 Q 56.83818199627779 16.798686105111592 57.33813301988441 16.798686105111592 Q 57.83808404349104 16.798686105111592 58.33803506709766 16.798686105111592 Q 58.83798609070428 16.798686105111592 59.3379371143109 16.798686105111592 Q 59.83788813791752 16.798686105111592 60.337839161524144 16.798686105111592 Q 60.83779018513077 16.798686105111592 61.337741208737384 16.798686105111592 Q 61.837692232344 16.798686105111592 62.337643255950624 16.798686105111592 Q 62.83759427955725 16.798686105111592 62.83759427955725 16.300485961123112 Q 62.83759427955725 15.80228581713463 63.33754530316387 15.80228581713463 Q 63.83749632677049 15.80228581713463 64.33744735037712 15.80228581713463 Q 64.83739837398373 15.80228581713463 65.33734939759036 15.80228581713463 Q 65.83730042119699 15.80228581713463 66.3372514448036 15.80228581713463 Q 66.83720246841023 15.80228581713463 67.33715349201685 15.80228581713463 Q 67.83710451562347 15.80228581713463 68.33705553923008 15.80228581713463 Q 68.8370065628367 15.80228581713463 69.33695758644333 15.80228581713463 Q 69.83690861004995 15.80228581713463 70.33685963365657 15.80228581713463 Q 70.8368106572632 15.80228581713463 71.33676168086981 15.80228581713463 Q 71.83671270447644 15.80228581713463 72.33666372808307 15.80228581713463 Q 72.83661475168968 15.80228581713463 73.3365657752963 15.80228581713463 Q 73.83651679890292 15.80228581713463 74.33646782250955 15.80228581713463 Q 74.83641884611617 15.80228581713463 75.3363698697228 15.80228581713463 Q 75.83632089332941 15.80228581713463 76.33627191693603 15.80228581713463 Q 76.83622294054265 15.80228581713463 77.33617396414928 15.80228581713463 Q 77.8361249877559 15.80228581713463 78.33607601136251 15.80228581713463 Q 78.83602703496913 15.80228581713463 79.33597805857576 15.80228581713463 Q 79.83592908218239 15.80228581713463 80.33588010578902 15.80228581713463 Q 80.83583112939563 15.80228581713463 81.33578215300224 15.80228581713463 Q 81.83573317660887 15.80228581713463 81.83573317660887 16.300485961123112 Q 81.83573317660887 16.798686105111592 82.3356842002155 16.798686105111592 Q 82.83563522382211 16.798686105111592 83.33558624742872 16.798686105111592 Q 83.83553727103535 16.798686105111592 84.33548829464198 16.798686105111592 Q 84.8354393182486 16.798686105111592 85.33539034185523 16.798686105111592 Q 85.83534136546184 16.798686105111592 86.33529238906846 16.798686105111592 Q 86.83524341267508 16.798686105111592 87.33519443628171 16.798686105111592 Q 87.83514545988832 16.798686105111592 88.33509648349495 16.798686105111592 Q 88.83504750710158 16.798686105111592 89.33499853070819 16.798686105111592 Q 89.83494955431482 16.798686105111592 90.33490057792145 16.798686105111592 Q 90.83485160152806 16.798686105111592 91.33480262513469 16.798686105111592 Q 91.8347536487413 16.798686105111592 92.33470467234793 16.798686105111592 Q 92.83465569595454 16.798686105111592 93.33460671956117 16.798686105111592 Q 93.8345577431678 16.798686105111592 94.3345087667744 16.798686105111592 Q 94.83445979038105 16.798686105111592 95.33441081398766 16.798686105111592 Q 95.83436183759429 16.798686105111592 96.33431286120089 16.798686105111592 Q 96.83426388480753 16.798686105111592 97.33421490841414 16.798686105111592 Q 97.83416593202077 16.798686105111592 98.3341169556274 16.798686105111592 Q 98.834067979234 16.798686105111592 99.33401900284062 16.798686105111592 Q 99.83397002644725 16.798686105111592 100.33392105005387 16.798686105111592 Q 100.83387207366049 16.798686105111592 101.3338230972671 16.798686105111592 Q 101.83377412087373 16.798686105111592 102.33372514448035 16.798686105111592 Q 102.83367616808698 16.798686105111592 103.3336271916936 16.798686105111592 Q 103.83357821530022 16.798686105111592 104.33352923890683 17.296886249100073 Q 104.83348026251346 17.795086393088553 105.33343128612007 17.795086393088553 Q 105.8333823097267 17.795086393088553 106.33333333333331 17.795086393088553 Q 106.83328435693996 17.795086393088553 107.33323538054655 17.795086393088553 Q 107.8331864041532 17.795086393088553 108.33313742775982 17.795086393088553 Q 108.83308845136644 17.795086393088553 109.33303947497303 17.795086393088553 Q 109.83299049857968 17.795086393088553 110.3329415221863 17.795086393088553 Q 110.83289254579292 17.795086393088553 111.33284356939954 17.795086393088553 Q 111.83279459300616 17.795086393088553 112.33274561661278 17.795086393088553 Q 112.8326966402194 17.795086393088553 113.33264766382604 17.795086393088553 Q 113.83259868743264 17.795086393088553 114.33254971103926 17.795086393088553 Q 114.83250073464588 17.795086393088553 115.33245175825252 17.795086393088553 Q 115.83240278185912 17.795086393088553 116.33235380546576 17.795086393088553 Q 116.83230482907238 17.795086393088553 117.332255852679 17.795086393088553 Q 117.83220687628562 17.795086393088553 118.33215789989224 17.795086393088553 Q 118.83210892349886 17.795086393088553 119.33205994710548 17.795086393088553 Q 119.8320109707121 17.795086393088553 120.33196199431872 17.795086393088553 Q 120.83191301792536 17.795086393088553 121.331864041532 17.795086393088553 Q 121.8318150651386 17.795086393088553 122.3317660887452 17.795086393088553 Q 122.83171711235184 17.795086393088553 123.33166813595848 17.795086393088553 Q 123.83161915956508 17.795086393088553 124.33157018317168 17.795086393088553 Q 124.83152120677832 17.795086393088553 125.33147223038496 17.795086393088553 Q 125.83142325399156 17.795086393088553 126.3313742775982 17.795086393088553 Q 126.8313253012048 17.795086393088553 127.33127632481144 17.795086393088553 Q 127.83122734841804 17.795086393088553 128.33117837202468 17.795086393088553 Q 128.8311293956313 17.795086393088553 129.33108041923794 17.795086393088553 Q 129.83103144284453 17.795086393088553 129.83103144284453 18.293286537077034 Q 129.83103144284453 18.79148668106551 130.33098246645116 18.79148668106551 Q 130.8309334900578 18.79148668106551 131.3308845136644 18.79148668106551 Q 131.830835537271 18.79148668106551 132.33078656087764 18.79148668106551 Q 132.83073758448427 18.79148668106551 133.3306886080909 18.79148668106551 Q 133.83063963169752 18.79148668106551 134.33059065530415 18.79148668106551 Q 134.83054167891075 18.79148668106551 135.33049270251738 18.79148668106551 Q 135.830443726124 18.79148668106551 136.33039474973063 18.79148668106551 Q 136.83034577333726 18.79148668106551 137.33029679694386 18.79148668106551 Q 137.83024782055048 18.79148668106551 138.3301988441571 18.79148668106551 Q 138.83014986776374 18.79148668106551 139.33010089137036 18.79148668106551 Q 139.83005191497696 18.79148668106551 140.3300029385836 18.79148668106551 Q 140.82995396219022 18.79148668106551 141.32990498579684 18.79148668106551 Q 141.82985600940347 18.79148668106551 142.32980703301007 18.79148668106551 Q 142.8297580566167 18.79148668106551 143.32970908022332 18.79148668106551 Q 143.82966010382995 18.79148668106551 144.32961112743658 18.79148668106551 Q 144.82956215104318 18.79148668106551 145.3295131746498 18.79148668106551 Q 145.82946419825643 18.79148668106551 146.32941522186306 18.79148668106551 Q 146.82936624546969 18.79148668106551 147.32931726907628 18.79148668106551 Q 147.8292682926829 18.79148668106551 148.32921931628954 18.79148668106551 Q 148.82917033989617 18.79148668106551 149.3291213635028 18.79148668106551 Q 149.8290723871094 18.79148668106551 150.32902341071602 18.293286537077034 Q 150.82897443432265 17.795086393088553 151.32892545792927 17.795086393088553 Q 151.8288764815359 17.795086393088553 152.3288275051425 17.795086393088553 Q 152.82877852874913 17.795086393088553 153.32872955235575 17.795086393088553 Q 153.82868057596238 17.795086393088553 154.328631599569 17.795086393088553 Q 154.82858262317563 17.795086393088553 155.32853364678226 17.795086393088553 Q 155.82848467038886 17.795086393088553 156.3284356939955 17.795086393088553 Q 156.82838671760211 17.795086393088553 157.3283377412087 17.795086393088553 Q 157.82828876481534 17.795086393088553 158.32823978842197 17.795086393088553 Q 158.8281908120286 17.795086393088553 159.32814183563522 17.795086393088553 Q 159.82809285924185 17.795086393088553 160.32804388284848 17.795086393088553 Q 160.82799490645507 17.795086393088553 161.3279459300617 17.795086393088553 Q 161.82789695366833 17.795086393088553 162.32784797727493 17.795086393088553 Q 162.82779900088156 17.795086393088553 163.32775002448818 17.795086393088553 Q 163.8277010480948 17.795086393088553 164.32765207170144 17.795086393088553 Q 164.82760309530806 17.795086393088553 165.3275541189147 17.795086393088553 Q 165.8275051425213 17.795086393088553 166.32745616612792 17.795086393088553 Q 166.82740718973454 17.795086393088553 167.32735821334114 17.795086393088553 Q 167.82730923694777 17.795086393088553 168.3272602605544 17.795086393088553 Q 168.82721128416102 17.795086393088553 169.32716230776765 17.795086393088553 Q 169.82711333137428 17.795086393088553 170.3270643549809 17.795086393088553 Q 170.8270153785875 17.795086393088553 171.32696640219413 17.795086393088553 Q 171.82691742580076 17.795086393088553 172.32686844940736 17.795086393088553 Q 172.82681947301398 17.795086393088553 173.3267704966206 17.795086393088553 Q 173.82672152022724 17.795086393088553 174.3266725438339 17.795086393088553 Q 174.8266235674405 17.795086393088553 175.32657459104712 17.795086393088553 Q 175.82652561465372 17.795086393088553 176.32647663826037 17.795086393088553 Q 176.82642766186697 17.795086393088553 177.3263786854736 17.795086393088553 Q 177.82632970908023 17.795086393088553 178.32628073268685 17.795086393088553 Q 178.82623175629345 17.795086393088553 179.32618277990008 17.795086393088553 Q 179.8261338035067 17.795086393088553 180.32608482711333 17.795086393088553 Q 180.82603585071993 17.795086393088553 181.32598687432656 17.795086393088553 Q 181.8259378979332 17.795086393088553 182.3258889215398 17.795086393088553 Q 182.82583994514644 17.795086393088553 182.82583994514644 17.296886249100073 Q 182.82583994514644 16.798686105111592 182.82583994514644 15.802285817134631 L 182.82583994514644 14.780885529157668" stroke-linecap="round" />
</g>
<g transform="matrix(1 0 0 1 246.81957 16.30049)"  >
<path style="stroke: rgb(0,255,0); stroke-width: 25; stroke-dasharray: none; stroke-linecap: round; stroke-dashoffset: 0; stroke-linejoin: round; stroke-miterlimit: 10; fill: none; fill-rule: nonzero; opacity: 1;"  transform=" translate(-246.81957, -16.30049)" d="M 187.80035018121265 14.805885529157669 Q 187.82535018121263 14.805885529157669 188.32530120481923 14.805885529157669 Q 188.82525222842588 14.805885529157669 189.3252032520325 14.805885529157669 Q 189.8251542756391 14.805885529157669 190.32510529924576 14.805885529157669 Q 190.82505632285236 14.805885529157669 191.325007346459 14.805885529157669 Q 191.8249583700656 14.805885529157669 192.32490939367224 14.805885529157669 Q 192.82486041727887 14.805885529157669 193.32481144088547 15.30408567314615 Q 193.8247624644921 15.80228581713463 194.32471348809872 15.80228581713463 Q 194.82466451170535 15.80228581713463 195.324615535312 15.80228581713463 Q 195.82456655891855 15.80228581713463 196.3245175825252 15.80228581713463 Q 196.82446860613183 15.80228581713463 197.3244196297385 15.80228581713463 Q 197.82437065334508 15.80228581713463 198.32432167695168 15.80228581713463 Q 198.8242727005583 15.80228581713463 199.32422372416497 15.80228581713463 Q 199.82417474777156 15.80228581713463 200.3241257713782 15.80228581713463 Q 200.8240767949848 15.80228581713463 201.32402781859145 15.80228581713463 Q 201.82397884219804 15.80228581713463 202.32392986580467 15.80228581713463 Q 202.8238808894113 15.80228581713463 203.3238319130179 15.80228581713463 Q 203.82378293662453 15.80228581713463 204.32373396023115 15.80228581713463 Q 204.82368498383775 15.80228581713463 205.3236360074444 15.80228581713463 Q 205.82358703105103 15.80228581713463 206.3235380546577 15.80228581713463 Q 206.82348907826423 15.80228581713463 207.3234401018709 15.80228581713463 Q 207.8233911254775 15.80228581713463 208.3233421490841 15.80228581713463 Q 208.8232931726907 15.80228581713463 209.32324419629737 15.80228581713463 Q 209.823195219904 15.80228581713463 210.32314624351065 15.80228581713463 Q 210.82309726711725 15.80228581713463 211.32304829072388 15.80228581713463 Q 211.82299931433047 15.80228581713463 212.3229503379371 16.300485961123112 Q 212.82290136154373 16.798686105111592 213.32285238515033 16.798686105111592 Q 213.82280340875695 16.798686105111592 214.3227544323636 16.798686105111592 Q 214.8227054559702 16.798686105111592 215.32265647957684 16.798686105111592 Q 215.82260750318343 16.798686105111592 216.3225585267901 16.798686105111592 Q 216.8225095503967 16.798686105111592 217.32246057400332 16.798686105111592 Q 217.82241159760991 16.798686105111592 218.32236262121657 16.798686105111592 Q 218.8223136448232 16.798686105111592 219.3222646684298 16.798686105111592 Q 219.8222156920364 16.798686105111592 220.32216671564305 16.798686105111592 Q 220.82211773924968 16.798686105111592 221.3220687628563 16.798686105111592 Q 221.8220197864629 16.798686105111592 222.32197081006953 16.798686105111592 Q 222.82192183367616 16.798686105111592 223.3218728572828 16.798686105111592 Q 223.8218238808894 16.798686105111592 224.321774904496 16.798686105111592 Q 224.82172592810264 16.798686105111592 225.3216769517093 16.798686105111592 Q 225.8216279753159 16.798686105111592 226.32157899892252 16.798686105111592 Q 226.82153002252912 16.798686105111592 227.32148104613577 16.798686105111592 Q 227.82143206974237 16.798686105111592 228.321383093349 16.798686105111592 Q 228.82133411695563 16.798686105111592 229.32128514056225 16.798686105111592 Q 229.82123616416885 16.798686105111592 230.32118718777548 16.798686105111592 Q 230.8211382113821 16.798686105111592 231.32108923498873 16.798686105111592 Q 231.82104025859533 16.798686105111592 232.32099128220196 16.798686105111592 Q 232.8209423058086 16.798686105111592 233.3208933294152 16.798686105111592 Q 233.82084435302184 16.798686105111592 234.32079537662844 16.798686105111592 Q 234.82074640023507 16.798686105111592 235.3206974238417 16.798686105111592 Q 235.82064844744832 16.798686105111592 236.32059947105495 16.798686105111592 Q 236.82055049466155 16.798686105111592 237.32050151826817 16.798686105111592 Q 237.8204525418748 16.798686105111592 238.32040356548143 16.798686105111592 Q 238.82035458908803 16.798686105111592 239.32030561269465 16.798686105111592 Q 239.82025663630128 16.798686105111592 240.3202076599079 16.798686105111592 Q 240.8201586835145 16.798686105111592 241.32010970712116 16.798686105111592 Q 241.8200607307278 16.798686105111592 242.3200117543344 16.798686105111592 Q 242.81996277794104 16.798686105111592 243.31991380154764 16.798686105111592 Q 243.81986482515427 16.798686105111592 244.31981584876087 16.798686105111592 Q 244.8197668723675 16.798686105111592 245.31971789597412 16.798686105111592 Q 245.81966891958075 16.798686105111592 246.31961994318735 16.798686105111592 Q 246.819570966794 16.798686105111592 247.31952199040063 16.798686105111592 Q 247.81947301400723 16.798686105111592 248.31942403761383 16.798686105111592 Q 248.81937506122048 16.798686105111592 249.31932608482708 16.798686105111592 Q 249.8192771084337 16.798686105111592 250.3192281320403 16.798686105111592 Q 250.81917915564696 16.798686105111592 251.3191301792536 16.798686105111592 Q 251.81908120286025 16.798686105111592 252.31903222646685 16.798686105111592 Q 252.81898325007344 16.798686105111592 253.31893427368007 16.798686105111592 Q 253.8188852972867 16.798686105111592 254.3188363208933 16.798686105111592 Q 254.81878734449992 16.798686105111592 255.31873836810655 16.798686105111592 Q 255.8186893917132 16.798686105111592 256.3186404153198 16.798686105111592 Q 256.81859143892643 16.798686105111592 257.31854246253306 16.798686105111592 Q 257.8184934861397 16.798686105111592 258.3184445097463 16.798686105111592 Q 258.8183955333529 16.798686105111592 259.3183465569595 16.798686105111592 Q 259.81829758056614 16.798686105111592 260.31824860417277 16.798686105111592 Q 260.8181996277794 16.798686105111592 261.318150651386 16.798686105111592 Q 261.81810167499265 16.798686105111592 262.3180526985993 16.798686105111592 Q 262.8180037222059 16.798686105111592 263.3179547458125 16.798686105111592 Q 263.8179057694191 16.798686105111592 264.3178567930257 16.798686105111592 Q 264.81780781663235 16.798686105111592 265.317758840239 16.798686105111592 Q 265.8177098638456 16.798686105111592 266.31766088745223 16.798686105111592 Q 266.81761191105886 16.798686105111592 267.3175629346655 16.798686105111592 Q 267.8175139582721 16.798686105111592 268.31746498187874 16.798686105111592 Q 268.8174160054853 16.798686105111592 269.31736702909194 16.798686105111592 Q 269.81731805269857 16.798686105111592 270.3172690763052 16.798686105111592 Q 270.8172200999118 16.798686105111592 271.31717112351845 16.798686105111592 Q 271.8171221471251 16.798686105111592 272.3170731707317 16.798686105111592 Q 272.81702419433833 16.798686105111592 273.31697521794496 16.798686105111592 Q 273.8169262415516 16.798686105111592 274.31687726515815 16.798686105111592 Q 274.8168282887648 16.798686105111592 275.3167793123714 16.798686105111592 Q 275.81673033597804 16.798686105111592 276.31668135958466 16.798686105111592 Q 276.8166323831913 16.798686105111592 277.81653443040454 16.798686105111592 Q 278.8164364776178 16.798686105111592 279.81633852483105 16.798686105111592 Q 280.81624057204425 16.798686105111592 281.3161915956509 16.798686105111592 Q 281.8161426192575 16.798686105111592 282.31609364286413 16.798686105111592 Q 282.81604466647076 16.798686105111592 283.81594671368396 16.798686105111592 Q 284.8158487608972 16.798686105111592 285.81575080811047 16.798686105111592 Q 286.8156528553237 16.798686105111592 287.31560387893035 16.798686105111592 Q 287.815554902537 16.798686105111592 288.8154569497502 16.798686105111592 Q 289.8153589969634 16.798686105111592 290.31531002057005 16.798686105111592 Q 290.8152610441767 16.798686105111592 291.3152120677833 16.798686105111592 Q 291.81516309138993 16.798686105111592 292.31511411499656 16.798686105111592 Q 292.8150651386032 16.798686105111592 293.3150161622098 16.798686105111592 Q 293.81496718581644 16.798686105111592 294.314918209423 16.798686105111592 Q 294.81486923302964 16.798686105111592 295.31482025663627 16.798686105111592 Q 295.8147712802429 16.798686105111592 295.8147712802429 17.296886249100073 Q 295.8147712802429 17.795086393088553 296.3147223038495 17.795086393088553 Q 296.81467332745615 17.795086393088553 297.3146243510628 17.795086393088553 Q 297.8145753746694 17.795086393088553 298.31452639827603 17.795086393088553 Q 298.81447742188266 17.795086393088553 299.3144284454893 17.795086393088553 Q 299.81437946909585 17.795086393088553 300.3143304927025 17.795086393088553 Q 300.8142815163091 17.795086393088553 301.31423253991574 17.795086393088553 Q 301.81418356352236 17.795086393088553 302.314134587129 17.795086393088553 Q 302.8140856107356 17.795086393088553 303.31403663434224 17.795086393088553 Q 303.81398765794887 17.795086393088553 304.31393868155544 17.795086393088553 Q 304.81388970516207 17.795086393088553 305.3138407287687 17.795086393088553 L 305.8387917523753 17.795086393088553" stroke-linecap="round" />
</g>
<g transform="matrix(1 0 0 1 112.8327 82.56111)"  >
<path style="stroke: rgb(0,255,0); stroke-width: 25; stroke-dasharray: none; stroke-linecap: round; stroke-dashoffset: 0; stroke-linejoin: round; stroke-miterlimit: 10; fill: none; fill-rule: nonzero; opacity: 1;"  transform=" translate(-112.8327, -82.56111)" d="M 112.8076966402194 82.53610511159107 L 112.85769664021942 82.58610511159108" stroke-linecap="round" />
</g>
<g transform="matrix(1 0 0 1 192.82486 50.1781)"  >
<path style="stroke: rgb(0,255,0); stroke-width: 25; stroke-dasharray: none; stroke-linecap: round; stroke-dashoffset: 0; stroke-linejoin: round; stroke-miterlimit: 10; fill: none; fill-rule: nonzero; opacity: 1;"  transform=" translate(-192.82486, -50.1781)" d="M 192.82486041727887 50.7012958963283 Q 192.82486041727887 50.6762958963283 192.82486041727887 50.178095752339814 L 192.82486041727887 49.65489560835134" stroke-linecap="round" />
</g>
</svg>